<svg width="88" height="40" viewBox="0 0 88 40" fill="none" xmlns="http://www.w3.org/2000/svg">
<path d="M60.2344 15.5859L57.3359 11.3594H59.4297L61.3984 14.3828L63.3828 11.3594H65.4609L62.5547 15.5859L65.6094 20H63.5312L61.3984 16.7656L59.2734 20H57.1953L60.2344 15.5859ZM67.8125 20L72.3281 10.2109H66.3906V8.59375H74.2891V9.875L69.7969 20H67.8125ZM76.9531 20L81.4688 10.2109H75.5312V8.59375H83.4297V9.875L78.9375 20H76.9531Z" fill="#1A445C"/>
<path d="M59.998 31.0977C59.2233 31.0977 58.6227 30.86 58.1963 30.3848C57.7731 29.9062 57.5615 29.2308 57.5615 28.3584C57.5615 27.4632 57.7764 26.7715 58.2061 26.2832C58.639 25.7949 59.2542 25.5508 60.0518 25.5508C60.3089 25.5508 60.5661 25.5785 60.8232 25.6338C61.0804 25.6891 61.2822 25.7542 61.4287 25.8291L61.1797 26.5176C61.0007 26.446 60.8053 26.3874 60.5938 26.3418C60.3822 26.293 60.195 26.2686 60.0322 26.2686C58.945 26.2686 58.4014 26.9619 58.4014 28.3486C58.4014 29.0062 58.5332 29.5107 58.7969 29.8623C59.0638 30.2139 59.4577 30.3896 59.9785 30.3896C60.4245 30.3896 60.8818 30.2936 61.3506 30.1016V30.8193C60.9925 31.0049 60.5417 31.0977 59.998 31.0977ZM65.916 31L65.7549 30.2383H65.7158C65.4489 30.5736 65.182 30.8014 64.915 30.9219C64.6514 31.0391 64.321 31.0977 63.9238 31.0977C63.3932 31.0977 62.9766 30.9609 62.6738 30.6875C62.3743 30.4141 62.2246 30.0251 62.2246 29.5205C62.2246 28.4398 63.0889 27.8734 64.8174 27.8213L65.7256 27.792V27.46C65.7256 27.04 65.6344 26.7308 65.4521 26.5322C65.2731 26.3304 64.985 26.2295 64.5879 26.2295C64.1419 26.2295 63.6374 26.3662 63.0742 26.6396L62.8252 26.0195C63.0889 25.8763 63.377 25.764 63.6895 25.6826C64.0052 25.6012 64.321 25.5605 64.6367 25.5605C65.2747 25.5605 65.7467 25.7021 66.0527 25.9854C66.362 26.2686 66.5166 26.7227 66.5166 27.3477V31H65.916ZM64.085 30.4287C64.5895 30.4287 64.985 30.2904 65.2715 30.0137C65.5612 29.737 65.7061 29.3496 65.7061 28.8516V28.3682L64.8955 28.4023C64.251 28.4251 63.7855 28.526 63.499 28.7051C63.2158 28.8809 63.0742 29.1559 63.0742 29.5303C63.0742 29.8232 63.1621 30.0462 63.3379 30.1992C63.5169 30.3522 63.766 30.4287 64.085 30.4287ZM70.6816 31.0977C70.3333 31.0977 70.0143 31.0342 69.7246 30.9072C69.4382 30.777 69.1973 30.5785 69.002 30.3115H68.9434C68.9824 30.624 69.002 30.9202 69.002 31.2002V33.4023H68.1914V25.6484H68.8506L68.9629 26.3809H69.002C69.2103 26.0879 69.4528 25.8763 69.7295 25.7461C70.0062 25.6159 70.3236 25.5508 70.6816 25.5508C71.3913 25.5508 71.9382 25.7933 72.3223 26.2783C72.7096 26.7633 72.9033 27.4437 72.9033 28.3193C72.9033 29.1982 72.7064 29.8818 72.3125 30.3701C71.9219 30.8551 71.3783 31.0977 70.6816 31.0977ZM70.5645 26.2393C70.0176 26.2393 69.6221 26.3906 69.3779 26.6934C69.1338 26.9961 69.0085 27.4779 69.002 28.1387V28.3193C69.002 29.0713 69.1273 29.61 69.3779 29.9355C69.6286 30.2578 70.0306 30.4189 70.584 30.4189C71.0462 30.4189 71.4076 30.2318 71.668 29.8574C71.9316 29.4831 72.0635 28.9671 72.0635 28.3096C72.0635 27.6423 71.9316 27.1312 71.668 26.7764C71.4076 26.4183 71.0397 26.2393 70.5645 26.2393ZM75.1348 31H74.3242V25.6484H75.1348V31ZM74.2559 24.1982C74.2559 24.0127 74.3014 23.8776 74.3926 23.793C74.4837 23.7051 74.5977 23.6611 74.7344 23.6611C74.8646 23.6611 74.9769 23.7051 75.0713 23.793C75.1657 23.8809 75.2129 24.016 75.2129 24.1982C75.2129 24.3805 75.1657 24.5173 75.0713 24.6084C74.9769 24.6963 74.8646 24.7402 74.7344 24.7402C74.5977 24.7402 74.4837 24.6963 74.3926 24.6084C74.3014 24.5173 74.2559 24.3805 74.2559 24.1982ZM78.582 30.4287C78.7253 30.4287 78.8636 30.4189 78.9971 30.3994C79.1305 30.3766 79.2363 30.3538 79.3145 30.3311V30.9512C79.2266 30.9935 79.0964 31.0277 78.9238 31.0537C78.7546 31.083 78.6016 31.0977 78.4648 31.0977C77.4297 31.0977 76.9121 30.5524 76.9121 29.4619V26.2783H76.1455V25.8877L76.9121 25.5508L77.2539 24.4082H77.7227V25.6484H79.2754V26.2783H77.7227V29.4277C77.7227 29.75 77.7992 29.9974 77.9521 30.1699C78.1051 30.3424 78.3151 30.4287 78.582 30.4287ZM83.6797 31L83.5186 30.2383H83.4795C83.2126 30.5736 82.9456 30.8014 82.6787 30.9219C82.415 31.0391 82.0846 31.0977 81.6875 31.0977C81.1569 31.0977 80.7402 30.9609 80.4375 30.6875C80.138 30.4141 79.9883 30.0251 79.9883 29.5205C79.9883 28.4398 80.8525 27.8734 82.5811 27.8213L83.4893 27.792V27.46C83.4893 27.04 83.3981 26.7308 83.2158 26.5322C83.0368 26.3304 82.7487 26.2295 82.3516 26.2295C81.9056 26.2295 81.401 26.3662 80.8379 26.6396L80.5889 26.0195C80.8525 25.8763 81.1406 25.764 81.4531 25.6826C81.7689 25.6012 82.0846 25.5605 82.4004 25.5605C83.0384 25.5605 83.5104 25.7021 83.8164 25.9854C84.1257 26.2686 84.2803 26.7227 84.2803 27.3477V31H83.6797ZM81.8486 30.4287C82.3532 30.4287 82.7487 30.2904 83.0352 30.0137C83.3249 29.737 83.4697 29.3496 83.4697 28.8516V28.3682L82.6592 28.4023C82.0146 28.4251 81.5492 28.526 81.2627 28.7051C80.9795 28.8809 80.8379 29.1559 80.8379 29.5303C80.8379 29.8232 80.9258 30.0462 81.1016 30.1992C81.2806 30.3522 81.5296 30.4287 81.8486 30.4287ZM86.7656 31H85.9551V23.4023H86.7656V31Z" fill="#1A445C"/>
<path fill-rule="evenodd" clip-rule="evenodd" d="M40.0003 40V0H39.3189H30.7336L13.2686 23.301H21.8539L27.0934 16.3107H20.9039L26.2889 9.12621H36.4881V16.3107L18.732 40H20.6832H40.0003ZM36.4881 23.301H33.1998L27.4509 30.9709H36.4881V23.301Z" fill="#1A445C"/>
<path d="M0 40H9.33706L16.1048 30.9709H3.5122V23.6893L9.04278 16.3107H3.5122V9.12621H14.3415L21.2683 0H0V40Z" fill="#0171BE"/>
<rect x="52" y="3" width="1" height="34" fill="#1A445C"/>
</svg>
